:SAMPLES-PER-SECOND 30
:FULLY-SPECIFIED
:DEGREES
173
root  -17.5373 34.7513 -12.8053 -169.714 20.345 -176.619
RightUpLeg  -8.61535 -2.64624 -1.47797
RightLeg  -0.813635 14.4 -1.11466
RightFoot  11.4525 -0.250104 2.94963
RightToes  -36.9047 -0.194241 -0.291587
Spine  -4.9017 -0.757131 0.58468
Spine1  -9.79584 -1.32315 1.9133
HEad  -62.4253 -5.61626 8.84386
LeftShoulder1  -1.94126e-019 -3.10601e-018 -2.51263e-017
LeftArm  -85.6061 -31.9434 19.4859
LeftForeArm  75.3341 -79.3204 -62.9854
LeftHand  -1.26566 -1.4384 21.5268
RightShoulder  -4.96962e-017 0 -2.36833e-017
RightArm  -98.6386 27.0647 -25.2811
RightForeArm  51.103 67.3512 21.2923
RightHand  0.890372 -9.33169 -26.0048
LeftUpLeg  0.977274 12.93 8.74835
LeftLeg  0.702829 20.2486 -1.03193
LeftFoot  7.09956 -0.161362 2.76228
LeftToes  -25.6858 1.70063e-006 7.6642e-008
174
root  -17.4974 34.7616 -12.8313 -169.559 20.4638 -176.416
RightUpLeg  -8.65528 -2.07711 -1.27432
RightLeg  -0.797913 13.9328 -1.07686
RightFoot  11.6125 -0.247901 2.89547
RightToes  -35.9277 -0.186796 -0.290982
Spine  -4.90585 -0.818047 0.55683
Spine1  -9.81887 -1.43477 1.80841
HEad  -63.4924 -8.39342 9.6782
LeftShoulder1  -1.94126e-019 -3.10601e-018 -2.51263e-017
LeftArm  -89.4428 -38.3898 23.7124
LeftForeArm  41.7171 -70.5688 -28.286
LeftHand  -0.912163 -0.962254 16.7634
RightShoulder  -4.96962e-017 0 -2.36833e-017
RightArm  -104.177 30.7605 -33.546
RightForeArm  41.1125 45.4748 8.37354
RightHand  0.42508 -8.1239 -18.6529
LeftUpLeg  0.774069 12.7633 8.91946
LeftLeg  1.14221 20.6252 -0.895254
LeftFoot  6.91735 -0.156106 2.74402
LeftToes  -25.5141 1.70063e-006 7.6642e-008
175
root  -17.4543 34.7747 -12.8639 -169.597 20.4063 -176.393
RightUpLeg  -8.53432 -1.88005 -1.2103
RightLeg  -0.788553 13.6856 -1.05693
RightFoot  11.7244 -0.246788 2.86341
RightToes  -35.6688 -0.184841 -0.289372
Spine  -4.90984 -0.958369 0.533313
Spine1  -9.82037 -1.64621 1.70364
HEad  -64.6256 -12.0707 9.81618
LeftShoulder1  -1.94126e-019 -3.10601e-018 -2.51263e-017
LeftArm  -92.5644 -43.286 26.5251
LeftForeArm  31.7059 -61.6387 -18.0057
LeftHand  -0.904548 -1.60842 15.1435
RightShoulder  -4.96962e-017 0 -2.36833e-017
RightArm  -107.2 33.1086 -40.3735
RightForeArm  39.2732 26.4489 3.5211
RightHand  0.230373 -7.13647 -16.4453
LeftUpLeg  0.392858 12.7026 9.003
LeftLeg  2.1817 20.6421 -0.529233
LeftFoot  6.45462 -0.135436 2.56314
LeftToes  -24.9907 1.70063e-006 7.6642e-008
176
root  -17.4219 34.7871 -12.8908 -169.66 20.7674 -176.397
RightUpLeg  -8.46939 -1.87905 -1.19436
RightLeg  -0.795978 14.0292 -1.08465
RightFoot  11.7292 -0.253707 2.92801
RightToes  -35.1115 -0.183665 -0.288404
Spine  -4.86952 -1.03459 0.435242
Spine1  -9.73384 -1.68991 1.5296
HEad  -65.5542 -16.6227 9.96561
LeftShoulder1  -1.94126e-019 -3.10601e-018 -2.51263e-017
LeftArm  -93.4276 -46.3661 26.1673
LeftForeArm  28.7907 -58.1073 -15.6028
LeftHand  -0.950309 -1.74972 15.5905
RightShoulder  -4.96962e-017 0 -2.36833e-017
RightArm  -103.731 33.978 -40.7992
RightForeArm  37.2691 21.17 2.58009
RightHand  0.195637 -7.02817 -15.1907
LeftUpLeg  0.0406507 13.3011 9.04475
LeftLeg  3.37375 20.4629 -0.108153
LeftFoot  6.02783 -0.116524 2.37442
LeftToes  -25.0354 1.70063e-006 7.6642e-008
177
root  -17.4227 34.7614 -12.9156 -169.638 21.7816 -176.351
RightUpLeg  -8.59438 -1.71806 -1.22049
RightLeg  -0.815967 14.915 -1.1565
RightFoot  11.8455 -0.281025 3.16124
RightToes  -35.5793 -0.184166 -0.288813
Spine  -4.78406 -1.16297 -0.0254219
Spine1  -9.57683 -2.03609 1.15997
HEad  -66.7171 -21.7013 10.8078
LeftShoulder1  -1.94126e-019 -3.10601e-018 -2.51263e-017
LeftArm  -91.7174 -47.3692 22.2433
LeftForeArm  29.0156 -61.9796 -18.6335
LeftHand  -0.941269 -1.32105 16.3947
RightShoulder  -4.96962e-017 0 -2.36833e-017
RightArm  -97.3575 33.4433 -35.4254
RightForeArm  39.7715 25.1346 3.23243
RightHand  0.0182327 -5.65218 -15.0403
LeftUpLeg  -0.264714 14.1907 9.01843
LeftLeg  4.67914 20.5568 0.349606
LeftFoot  5.50875 -0.0984037 2.20676
LeftToes  -24.698 1.70063e-006 7.6642e-008
178
root  -17.4106 34.7363 -12.9157 -169.612 23.2679 -176.191
RightUpLeg  -8.76595 -0.924021 -1.16974
RightLeg  -0.831386 15.5634 -1.20949
RightFoot  11.9345 -0.300608 3.3244
RightToes  -36.2073 -0.188916 -0.292711
Spine  -4.65197 -1.13755 -0.0668723
Spine1  -9.32904 -1.99148 1.2252
HEad  -67.8233 -27.0012 10.8163
LeftShoulder1  -1.94126e-019 -3.10601e-018 -2.51263e-017
LeftArm  -86.8336 -45.1681 14.8701
LeftForeArm  36.22 -71.3324 -31.1015
LeftHand  -0.939809 -1.47357 16.019
RightShoulder  -4.96962e-017 0 -2.36833e-017
RightArm  -89.4878 30.3281 -25.5716
RightForeArm  42.6179 43.8958 7.80053
RightHand  0.127736 -6.37166 -16.891
LeftUpLeg  -0.54753 14.9777 9.07319
LeftLeg  6.2668 21.1442 0.932164
LeftFoot  4.89309 -0.0801711 2.03781
LeftToes  -24.635 1.70063e-006 7.6642e-008
179
root  -17.4048 34.7034 -12.9051 -169.664 25.1056 -175.974
RightUpLeg  -8.90298 0.144355 -1.11347
RightLeg  -0.850769 16.3412 -1.27353
RightFoot  12.0123 -0.322574 3.5099
RightToes  -37.0132 -0.195074 -0.2981
Spine  -4.48734 -1.03659 -0.00122372
Spine1  -9.00409 -1.77622 1.37913
HEad  -69.4024 -31.4327 10.8868
LeftShoulder1  -1.94126e-019 -3.10601e-018 -2.51263e-017
LeftArm  -81.0407 -40.2939 8.98631
LeftForeArm  74.2035 -79.4351 -69.2115
LeftHand  -0.991984 -1.9039 15.928
RightShoulder  -4.96962e-017 0 -2.36833e-017
RightArm  -83.8756 24.9042 -15.7899
RightForeArm  49.2565 63.9859 17.9495
RightHand  0.198101 -6.90507 -16.4531
LeftUpLeg  -0.536289 15.7074 9.1433
LeftLeg  7.64721 22.1098 1.49354
LeftFoot  4.3297 -0.0658903 1.9045
LeftToes  -24.7566 1.70063e-006 7.6642e-008
180
root  -17.4031 34.667 -12.8974 -169.689 26.8938 -175.807
RightUpLeg  -9.06655 1.52439 -1.13995
RightLeg  -0.860826 16.7299 -1.30574
RightFoot  12.0952 -0.335682 3.61034
RightToes  -37.8437 -0.201491 -0.30262
Spine  -4.34517 -1.07648 0.173867
Spine1  -8.71359 -1.84285 1.75302
HEad  -71.448 -34.6739 10.8869
LeftShoulder1  -1.94126e-019 -3.10601e-018 -2.51263e-017
LeftArm  -76.122 -33.2304 6.40351
LeftForeArm  137.552 -78.0078 -127.048
LeftHand  -1.26052 -3.50445 16.625
RightShoulder  -4.96962e-017 0 -2.36833e-017
RightArm  -80.2919 18.5289 -8.76418
RightForeArm  81.6334 79.0916 52.9249
RightHand  0.276784 -7.41347 -16.8447
LeftUpLeg  -0.24353 16.1115 9.10148
LeftLeg  8.32458 23.3576 1.84303
LeftFoot  3.9857 -0.0592008 1.86284
LeftToes  -24.9395 1.70063e-006 7.6642e-008
